<mxfile host="Electron" modified="2024-04-21T20:11:15.644Z" agent="Mozilla/5.0 (Windows NT 10.0; Win64; x64) AppleWebKit/537.36 (KHTML, like Gecko) draw.io/24.2.5 Chrome/120.0.6099.109 Electron/28.1.0 Safari/537.36" etag="QG2b_KumZmwsx2_ZXmUi" version="24.2.5" type="device">
  <diagram id="C5RBs43oDa-KdzZeNtuy" name="Page-1">
    <mxGraphModel dx="1120" dy="532" grid="1" gridSize="10" guides="1" tooltips="1" connect="1" arrows="1" fold="1" page="1" pageScale="1" pageWidth="827" pageHeight="1169" math="0" shadow="0">
      <root>
        <mxCell id="WIyWlLk6GJQsqaUBKTNV-0" />
        <mxCell id="WIyWlLk6GJQsqaUBKTNV-1" parent="WIyWlLk6GJQsqaUBKTNV-0" />
        <mxCell id="5kl0PYAWxY9OuWdiYYXM-2" value="" style="edgeStyle=orthogonalEdgeStyle;rounded=0;orthogonalLoop=1;jettySize=auto;html=1;" edge="1" parent="WIyWlLk6GJQsqaUBKTNV-1" source="5kl0PYAWxY9OuWdiYYXM-0" target="5kl0PYAWxY9OuWdiYYXM-1">
          <mxGeometry relative="1" as="geometry" />
        </mxCell>
        <mxCell id="5kl0PYAWxY9OuWdiYYXM-0" value="Take original price" style="rounded=0;whiteSpace=wrap;html=1;" vertex="1" parent="WIyWlLk6GJQsqaUBKTNV-1">
          <mxGeometry x="354" y="20" width="120" height="60" as="geometry" />
        </mxCell>
        <mxCell id="5kl0PYAWxY9OuWdiYYXM-12" value="" style="edgeStyle=orthogonalEdgeStyle;rounded=0;orthogonalLoop=1;jettySize=auto;html=1;" edge="1" parent="WIyWlLk6GJQsqaUBKTNV-1" source="5kl0PYAWxY9OuWdiYYXM-1" target="5kl0PYAWxY9OuWdiYYXM-11">
          <mxGeometry relative="1" as="geometry" />
        </mxCell>
        <mxCell id="5kl0PYAWxY9OuWdiYYXM-1" value="Apply 60% discount" style="whiteSpace=wrap;html=1;rounded=0;" vertex="1" parent="WIyWlLk6GJQsqaUBKTNV-1">
          <mxGeometry x="354" y="120" width="120" height="60" as="geometry" />
        </mxCell>
        <mxCell id="5kl0PYAWxY9OuWdiYYXM-14" value="" style="edgeStyle=orthogonalEdgeStyle;rounded=0;orthogonalLoop=1;jettySize=auto;html=1;" edge="1" parent="WIyWlLk6GJQsqaUBKTNV-1" source="5kl0PYAWxY9OuWdiYYXM-11" target="5kl0PYAWxY9OuWdiYYXM-13">
          <mxGeometry relative="1" as="geometry" />
        </mxCell>
        <mxCell id="5kl0PYAWxY9OuWdiYYXM-11" value="Save discounted price to text variable" style="whiteSpace=wrap;html=1;rounded=0;" vertex="1" parent="WIyWlLk6GJQsqaUBKTNV-1">
          <mxGeometry x="354" y="220" width="120" height="60" as="geometry" />
        </mxCell>
        <mxCell id="5kl0PYAWxY9OuWdiYYXM-22" value="" style="edgeStyle=orthogonalEdgeStyle;rounded=0;orthogonalLoop=1;jettySize=auto;html=1;" edge="1" parent="WIyWlLk6GJQsqaUBKTNV-1" source="5kl0PYAWxY9OuWdiYYXM-13" target="5kl0PYAWxY9OuWdiYYXM-21">
          <mxGeometry relative="1" as="geometry" />
        </mxCell>
        <mxCell id="5kl0PYAWxY9OuWdiYYXM-13" value="Save discount amount to a text variable" style="whiteSpace=wrap;html=1;rounded=0;" vertex="1" parent="WIyWlLk6GJQsqaUBKTNV-1">
          <mxGeometry x="354" y="320" width="120" height="60" as="geometry" />
        </mxCell>
        <mxCell id="5kl0PYAWxY9OuWdiYYXM-24" value="" style="edgeStyle=orthogonalEdgeStyle;rounded=0;orthogonalLoop=1;jettySize=auto;html=1;" edge="1" parent="WIyWlLk6GJQsqaUBKTNV-1" source="5kl0PYAWxY9OuWdiYYXM-21" target="5kl0PYAWxY9OuWdiYYXM-23">
          <mxGeometry relative="1" as="geometry" />
        </mxCell>
        <mxCell id="5kl0PYAWxY9OuWdiYYXM-21" value="Join original price, discount amount and discounted price in an text variable" style="whiteSpace=wrap;html=1;rounded=0;" vertex="1" parent="WIyWlLk6GJQsqaUBKTNV-1">
          <mxGeometry x="354" y="430" width="120" height="60" as="geometry" />
        </mxCell>
        <mxCell id="5kl0PYAWxY9OuWdiYYXM-25" style="edgeStyle=orthogonalEdgeStyle;rounded=0;orthogonalLoop=1;jettySize=auto;html=1;exitX=1;exitY=0.5;exitDx=0;exitDy=0;entryX=1;entryY=0.5;entryDx=0;entryDy=0;" edge="1" parent="WIyWlLk6GJQsqaUBKTNV-1" source="5kl0PYAWxY9OuWdiYYXM-23" target="5kl0PYAWxY9OuWdiYYXM-0">
          <mxGeometry relative="1" as="geometry">
            <Array as="points">
              <mxPoint x="520" y="570" />
              <mxPoint x="520" y="50" />
            </Array>
          </mxGeometry>
        </mxCell>
        <mxCell id="5kl0PYAWxY9OuWdiYYXM-26" value="YES" style="edgeLabel;html=1;align=center;verticalAlign=middle;resizable=0;points=[];" vertex="1" connectable="0" parent="5kl0PYAWxY9OuWdiYYXM-25">
          <mxGeometry x="0.0226" y="4" relative="1" as="geometry">
            <mxPoint as="offset" />
          </mxGeometry>
        </mxCell>
        <mxCell id="5kl0PYAWxY9OuWdiYYXM-28" value="" style="edgeStyle=orthogonalEdgeStyle;rounded=0;orthogonalLoop=1;jettySize=auto;html=1;" edge="1" parent="WIyWlLk6GJQsqaUBKTNV-1" source="5kl0PYAWxY9OuWdiYYXM-23" target="5kl0PYAWxY9OuWdiYYXM-27">
          <mxGeometry relative="1" as="geometry" />
        </mxCell>
        <mxCell id="5kl0PYAWxY9OuWdiYYXM-29" value="NO" style="edgeLabel;html=1;align=center;verticalAlign=middle;resizable=0;points=[];" vertex="1" connectable="0" parent="5kl0PYAWxY9OuWdiYYXM-28">
          <mxGeometry x="-0.2667" y="1" relative="1" as="geometry">
            <mxPoint as="offset" />
          </mxGeometry>
        </mxCell>
        <mxCell id="5kl0PYAWxY9OuWdiYYXM-23" value="Are there&lt;div&gt;any other&lt;/div&gt;&lt;div&gt;prices?&lt;/div&gt;" style="rhombus;whiteSpace=wrap;html=1;rounded=0;" vertex="1" parent="WIyWlLk6GJQsqaUBKTNV-1">
          <mxGeometry x="362" y="530" width="104" height="80" as="geometry" />
        </mxCell>
        <mxCell id="5kl0PYAWxY9OuWdiYYXM-27" value="Print to video the text variables obtained" style="whiteSpace=wrap;html=1;rounded=0;" vertex="1" parent="WIyWlLk6GJQsqaUBKTNV-1">
          <mxGeometry x="354" y="700" width="120" height="60" as="geometry" />
        </mxCell>
      </root>
    </mxGraphModel>
  </diagram>
</mxfile>
